<svg version="1.1" xmlns="http://www.w3.org/2000/svg" xmlns:xlink="http://www.w3.org/1999/xlink" width="439.630859375" height="424"><defs/><g><g transform="translate(-118,-158) scale(1,1)"><rect fill="#C0C0C0" stroke="none" x="295" y="175" width="112" height="56" opacity="0.2"/></g><g transform="translate(-118,-158) scale(1,1)"><rect fill="#ffffff" stroke="none" x="288" y="168" width="112" height="56"/></g><g transform="translate(-118,-158) scale(1,1)"><path fill="none" stroke="#000000" d="M 288 168 L 400 168 L 400 224 L 288 224 L 288 168 Z Z" stroke-miterlimit="10"/></g><g transform="translate(-118,-158) scale(1,1)"><path fill="none" stroke="#000000" d="M 288 193 L 400 193" stroke-miterlimit="10"/></g><g transform="translate(-118,-158) scale(1,1)"><path fill="none" stroke="#000000" d="M 288 203 L 400 203" stroke-miterlimit="10"/></g><g transform="translate(-118,-158) scale(1,1)"><g><path fill="none" stroke="none"/><text fill="#000000" stroke="none" font-family="Helvetica" font-size="13px" font-style="normal" font-weight="bold" text-decoration="none" x="320.52001953125" y="187.5">UObject</text></g></g><g transform="translate(-118,-158) scale(1,1)"><rect fill="#C0C0C0" stroke="none" x="327" y="303" width="52.341796875" height="44" opacity="0.2"/></g><g transform="translate(-118,-158) scale(1,1)"><rect fill="#ffffff" stroke="none" x="320" y="296" width="52.341796875" height="44"/></g><g transform="translate(-118,-158) scale(1,1)"><path fill="none" stroke="#000000" d="M 320 296 L 372.341796875 296 L 372.341796875 340 L 320 340 L 320 296 Z Z" stroke-miterlimit="10"/></g><g transform="translate(-118,-158) scale(1,1)"><path fill="none" stroke="#000000" d="M 320 321 L 372.341796875 321" stroke-miterlimit="10"/></g><g transform="translate(-118,-158) scale(1,1)"><path fill="none" stroke="#000000" d="M 320 331 L 372.341796875 331" stroke-miterlimit="10"/></g><g transform="translate(-118,-158) scale(1,1)"><g><path fill="none" stroke="none"/><text fill="#000000" stroke="none" font-family="Helvetica" font-size="13px" font-style="normal" font-weight="bold" text-decoration="none" x="326.66455078125" y="315.5">AActor</text></g></g><g transform="translate(-118,-158) scale(1,1)"><rect fill="#C0C0C0" stroke="none" x="159" y="423" width="146.2744140625" height="44" opacity="0.2"/></g><g transform="translate(-118,-158) scale(1,1)"><rect fill="#ffffff" stroke="none" x="152" y="416" width="146.2744140625" height="44"/></g><g transform="translate(-118,-158) scale(1,1)"><path fill="none" stroke="#000000" d="M 152 416 L 298.2744140625 416 L 298.2744140625 460 L 152 460 L 152 416 Z Z" stroke-miterlimit="10"/></g><g transform="translate(-118,-158) scale(1,1)"><path fill="none" stroke="#000000" d="M 152 441 L 298.2744140625 441" stroke-miterlimit="10"/></g><g transform="translate(-118,-158) scale(1,1)"><path fill="none" stroke="#000000" d="M 152 451 L 298.2744140625 451" stroke-miterlimit="10"/></g><g transform="translate(-118,-158) scale(1,1)"><g><path fill="none" stroke="none"/><text fill="#000000" stroke="none" font-family="Helvetica" font-size="13px" font-style="normal" font-weight="bold" text-decoration="none" x="174.200439453125" y="435.5">APlayerController</text></g></g><g transform="translate(-118,-158) scale(1,1)"><rect fill="#C0C0C0" stroke="none" x="135" y="535" width="194.2744140625" height="44" opacity="0.2"/></g><g transform="translate(-118,-158) scale(1,1)"><rect fill="#ffffff" stroke="none" x="128" y="528" width="194.2744140625" height="44"/></g><g transform="translate(-118,-158) scale(1,1)"><path fill="none" stroke="#000000" d="M 128 528 L 322.2744140625 528 L 322.2744140625 572 L 128 572 L 128 528 Z Z" stroke-miterlimit="10"/></g><g transform="translate(-118,-158) scale(1,1)"><path fill="none" stroke="#000000" d="M 128 553 L 322.2744140625 553" stroke-miterlimit="10"/></g><g transform="translate(-118,-158) scale(1,1)"><path fill="none" stroke="#000000" d="M 128 563 L 322.2744140625 563" stroke-miterlimit="10"/></g><g transform="translate(-118,-158) scale(1,1)"><g><path fill="none" stroke="none"/><text fill="#000000" stroke="none" font-family="Helvetica" font-size="13px" font-style="normal" font-weight="bold" text-decoration="none" x="160.83544921875" y="547.5">GamePlayerController</text></g></g><g transform="translate(-118,-158) scale(1,1)"><rect fill="#C0C0C0" stroke="none" x="431" y="423" width="52.341796875" height="44" opacity="0.2"/></g><g transform="translate(-118,-158) scale(1,1)"><rect fill="#ffffff" stroke="none" x="424" y="416" width="52.341796875" height="44"/></g><g transform="translate(-118,-158) scale(1,1)"><path fill="none" stroke="#000000" d="M 424 416 L 476.341796875 416 L 476.341796875 460 L 424 460 L 424 416 Z Z" stroke-miterlimit="10"/></g><g transform="translate(-118,-158) scale(1,1)"><path fill="none" stroke="#000000" d="M 424 441 L 476.341796875 441" stroke-miterlimit="10"/></g><g transform="translate(-118,-158) scale(1,1)"><path fill="none" stroke="#000000" d="M 424 451 L 476.341796875 451" stroke-miterlimit="10"/></g><g transform="translate(-118,-158) scale(1,1)"><g><path fill="none" stroke="none"/><text fill="#000000" stroke="none" font-family="Helvetica" font-size="13px" font-style="normal" font-weight="bold" text-decoration="none" x="429.575927734375" y="435.5">APawn</text></g></g><g transform="translate(-118,-158) scale(1,1)"><rect fill="#C0C0C0" stroke="none" x="503" y="535" width="51.630859375" height="44" opacity="0.2"/></g><g transform="translate(-118,-158) scale(1,1)"><rect fill="#ffffff" stroke="none" x="496" y="528" width="51.630859375" height="44"/></g><g transform="translate(-118,-158) scale(1,1)"><path fill="none" stroke="#000000" d="M 496 528 L 547.630859375 528 L 547.630859375 572 L 496 572 L 496 528 Z Z" stroke-miterlimit="10"/></g><g transform="translate(-118,-158) scale(1,1)"><path fill="none" stroke="#000000" d="M 496 553 L 547.630859375 553" stroke-miterlimit="10"/></g><g transform="translate(-118,-158) scale(1,1)"><path fill="none" stroke="#000000" d="M 496 563 L 547.630859375 563" stroke-miterlimit="10"/></g><g transform="translate(-118,-158) scale(1,1)"><g><path fill="none" stroke="none"/><text fill="#000000" stroke="none" font-family="Helvetica" font-size="13px" font-style="normal" font-weight="bold" text-decoration="none" x="501.58544921875" y="547.5">Enemy</text></g></g><g transform="translate(-118,-158) scale(1,1)"><rect fill="#C0C0C0" stroke="none" x="367" y="535" width="50.919921875" height="44" opacity="0.2"/></g><g transform="translate(-118,-158) scale(1,1)"><rect fill="#ffffff" stroke="none" x="360" y="528" width="50.919921875" height="44"/></g><g transform="translate(-118,-158) scale(1,1)"><path fill="none" stroke="#000000" d="M 360 528 L 410.919921875 528 L 410.919921875 572 L 360 572 L 360 528 Z Z" stroke-miterlimit="10"/></g><g transform="translate(-118,-158) scale(1,1)"><path fill="none" stroke="#000000" d="M 360 553 L 410.919921875 553" stroke-miterlimit="10"/></g><g transform="translate(-118,-158) scale(1,1)"><path fill="none" stroke="#000000" d="M 360 563 L 410.919921875 563" stroke-miterlimit="10"/></g><g transform="translate(-118,-158) scale(1,1)"><g><path fill="none" stroke="none"/><text fill="#000000" stroke="none" font-family="Helvetica" font-size="13px" font-style="normal" font-weight="bold" text-decoration="none" x="367.035888671875" y="547.5">Player</text></g></g><g transform="translate(-118,-158) scale(1,1)"><path fill="none" stroke="#000000" d="M 344 296 L 344 224" stroke-miterlimit="10"/></g><g transform="translate(-118,-158) scale(1,1)"><path fill="#FFFFFF" stroke="none" d="M 352.419035512032 244.3253497152483 L 344 224 L 335.580964487968 244.3253497152483"/></g><g transform="translate(-118,-158) scale(1,1)"><path fill="none" stroke="#000000" d="M 352.419035512032 244.3253497152483 L 344 224 L 335.580964487968 244.3253497152483 L 352.419035512032 244.3253497152483" stroke-miterlimit="10"/></g><g transform="translate(-118,-158) scale(1,1)"><path fill="none" stroke="#000000" d="M 224 416 L 224 320 L 320 320" stroke-miterlimit="10"/></g><g transform="translate(-118,-158) scale(1,1)"><path fill="#FFFFFF" stroke="none" d="M 299.6746502847517 328.419035512032 L 320 320 L 299.6746502847517 311.580964487968"/></g><g transform="translate(-118,-158) scale(1,1)"><path fill="none" stroke="#000000" d="M 299.6746502847517 328.419035512032 L 320 320 L 299.6746502847517 311.580964487968 L 299.6746502847517 328.419035512032" stroke-miterlimit="10"/></g><g transform="translate(-118,-158) scale(1,1)"><path fill="none" stroke="#000000" d="M 225 528 L 225 460" stroke-miterlimit="10"/></g><g transform="translate(-118,-158) scale(1,1)"><path fill="#FFFFFF" stroke="none" d="M 233.41903551203197 480.3253497152483 L 225 460 L 216.58096448796803 480.3253497152483"/></g><g transform="translate(-118,-158) scale(1,1)"><path fill="none" stroke="#000000" d="M 233.41903551203197 480.3253497152483 L 225 460 L 216.58096448796803 480.3253497152483 L 233.41903551203197 480.3253497152483" stroke-miterlimit="10"/></g><g transform="translate(-118,-158) scale(1,1)"><path fill="none" stroke="#000000" d="M 448 416 L 448 320 L 372 320" stroke-miterlimit="10"/></g><g transform="translate(-118,-158) scale(1,1)"><path fill="#FFFFFF" stroke="none" d="M 392.3253497152483 311.580964487968 L 372 320 L 392.3253497152483 328.419035512032"/></g><g transform="translate(-118,-158) scale(1,1)"><path fill="none" stroke="#000000" d="M 392.3253497152483 311.580964487968 L 372 320 L 392.3253497152483 328.419035512032 L 392.3253497152483 311.580964487968" stroke-miterlimit="10"/></g><g transform="translate(-118,-158) scale(1,1)"><path fill="none" stroke="#000000" d="M 384 528 L 384 440 L 424 440" stroke-miterlimit="10"/></g><g transform="translate(-118,-158) scale(1,1)"><path fill="#FFFFFF" stroke="none" d="M 403.6746502847517 448.419035512032 L 424 440 L 403.6746502847517 431.580964487968"/></g><g transform="translate(-118,-158) scale(1,1)"><path fill="none" stroke="#000000" d="M 403.6746502847517 448.419035512032 L 424 440 L 403.6746502847517 431.580964487968 L 403.6746502847517 448.419035512032" stroke-miterlimit="10"/></g><g transform="translate(-118,-158) scale(1,1)"><path fill="none" stroke="#000000" d="M 520 528 L 520 440 L 476 440" stroke-miterlimit="10"/></g><g transform="translate(-118,-158) scale(1,1)"><path fill="#FFFFFF" stroke="none" d="M 496.3253497152483 431.580964487968 L 476 440 L 496.3253497152483 448.419035512032"/></g><g transform="translate(-118,-158) scale(1,1)"><path fill="none" stroke="#000000" d="M 496.3253497152483 431.580964487968 L 476 440 L 496.3253497152483 448.419035512032 L 496.3253497152483 431.580964487968" stroke-miterlimit="10"/></g></g></svg>